# AST/ASF file generated using VICON BodyLanguage
# -----------------------------------------------
:version 1.10
:name VICON
:units
  mass 1.0
  length 0.45
  angle deg
:documentation
   .ast/.asf automatically generated from VICON data using
   VICON BodyBuilder and BodyLanguage model FoxedUp or BRILLIANT.MOD
:root
   order TX TY TZ RX RY RZ
   axis XYZ
   position 0 0 0  
   orientation 0 0 0 
:bonedata
  begin
     id 1 
     name lhipjoint
     direction 0.671379 -0.66392 0.329334 
     length 2.38647 
     axis 0 0 0  XYZ
  end
  begin
     id 2 
     name lfemur
     direction 0.34202 -0.939693 0  
     length 6.48179  
     axis 0 0 20  XYZ
    dof rx ry rz
    limits (-160.0 20.0)
           (-70.0 70.0)
           (-60.0 70.0)
  end
  begin
     id 3 
     name ltibia
     direction 0.34202 -0.939693 0   
     length 6.86524   
     axis 0 0 20   XYZ
    dof rx
    limits (-10.0 170.0)
  end
  begin
     id 4 
     name lfoot
     direction 0.204886 -0.562919 0.800715   
     length 1.73031   
     axis -90 7.62852e-016 20   XYZ
    dof rx rz
    limits (-45.0 90.0)
           (-70.0 20.0)
  end
  begin
     id 5 
     name ltoes
     direction 1.53548e-011 -4.21841e-011 1   
     length 0.828161   
     axis -90 7.62852e-016 20   XYZ
    dof rx
    limits (-90.0 20.0)
  end
  begin
     id 6 
     name rhipjoint
     direction -0.662732 -0.670855 0.332775   
     length 2.3618  
     axis 0 0 0  XYZ 
  end
  begin
     id 7 
     name rfemur
     direction -0.34202 -0.939693 0   
     length 6.3025   
     axis 0 0 -20   XYZ
    dof rx ry rz
    limits (-160.0 20.0)
           (-70.0 70.0)
           (-70.0 60.0)
  end
  begin
     id 8 
     name rtibia
     direction -0.34202 -0.939693 0   
     length 6.8732   
     axis 0 0 -20   XYZ
    dof rx
    limits (-10.0 170.0)
 end
 begin
     id 9 
     name rfoot
     direction -0.173856 -0.477665 0.861168   
     length 1.54784  
     axis -90 -7.62852e-016 -20   XYZ
    dof rx rz
    limits (-45.0 90.0)
           (-20.0 70.0)
  end
  begin
     id 10 
     name rtoes
     direction -1.53562e-011 -4.21802e-011 1   
     length 0.759618   
     axis -90 -7.62852e-016 -20   XYZ
    dof rx
    limits (-90.0 20.0)
  end
  begin
     id 11 
     name lowerback
     direction -0.0278357 0.999497 -0.0151789   
     length 1.97203   
     axis 0 0 0   XYZ
    dof rx ry rz
    limits (-20.0 45.0)
           (-30.0 30.0)
           (-30.0 30.0)
  end
  begin
     id 12 
     name upperback
     direction -0.00360622 0.997542 0.0699804   
     length 1.94709   
     axis 0 0 0   XYZ
    dof rx ry rz
    limits (-20.0 45.0)
           (-30.0 30.0)
           (-30.0 30.0)
  end
  begin
     id 13 
     name thorax
     direction 0.00907706 0.997048 0.0762461   
     length 1.95722   
     axis 0 0 0   XYZ
    dof rx ry rz
    limits (-20.0 45.0)
           (-30.0 30.0)
           (-30.0 30.0)
  end
  begin
     id 14 
     name lowerneck
     direction -0.0481835 0.99872 -0.0153927   
     length 1.63078   
     axis 0 0 0   XYZ
    dof rx ry rz
    limits (-20.0 45.0)
           (-30.0 30.0)
           (-30.0 30.0)
  end
  begin
     id 15 
     name upperneck
     direction 0.0859716 0.979226 -0.183644   
     length 1.62591   
     axis 0 0 0   XYZ
    dof rx ry rz
    limits (-20.0 45.0)
           (-30.0 30.0)
           (-30.0 30.0)
  end
  begin
     id 16
     name head
     direction 0.0324821 0.997629 -0.0606773  
     length 1.64811  
     axis 0 0 0   XYZ
    dof rx ry rz
    limits (-20.0 45.0)
           (-30.0 30.0)
           (-30.0 30.0)
  end
  begin
     id 17 
     name lclavicle
     direction 0.939609 0.311019 0.142835  
     length 3.70647  
     axis 0 0 0   XYZ
    dof ry rz
    limits (-20.0 10.0)
           (0.0 20.0)
  end
  begin
     id 18 
     name lhumerus
     direction 1 -4.48963e-011 -1.59838e-027   
     length 4.59207   
     axis 180 -30 -90   XYZ
    dof rx ry rz
    limits (-60.0 90.0)
           (-90.0 90.0)
           (-90.0 90.0)
  end
  begin
     id 19
     name lradius
     direction 1 -4.48957e-011 -1.3483e-026   
     length 2.98109   
     axis 180 -30 -90   XYZ
    dof rx
    limits (-10.0 170.0)
  end
  begin
     id 20
     name lwrist
     direction 1 -4.48954e-011 -3.11579e-026   
     length 1.49055   
     axis 2.00652e-014 90 90   XYZ
    dof ry
    limits (-180.0 0.0)
 end
  begin
     id 21 
     name lhand
     direction 1 -4.4911e-011 -6.23158e-026   
     length 0.480203   
     axis 3.97628e-014 90 90   XYZ
    dof rx rz
    limits (-90.0 90.0)
           (-45.0 45.0)
  end
  begin
     id 22 
     name lfingers
     direction 1 -4.48893e-011 -1.24632e-025   
     length 0.387152   
     axis 7.95256e-014 90 90   XYZ
    dof rx
    limits (0.0 90.0)
  end
  begin
     id 23
     name lthumb
     direction 0.707107 -6.35013e-011 0.707107   
     length 0.555875   
     axis -90 45 2.85299e-015   XYZ
    dof rx rz
    limits (-45.0 45.0)
           (-45.0 45.0)
  end
  begin
     id 24 
     name rclavicle
     direction -0.950396 0.30392 0.0661859   
     length 3.70894  
     axis 0 0 0   XYZ 
    dof ry rz
    limits (-10.0 20.0)
           (-20.0 0.0)
  end
  begin
     id 25 
     name rhumerus
     direction -1 -4.48957e-011 -2.96677e-027  
     length 4.76508   
     axis 180 30 90   XYZ
    dof rx ry rz
    limits (-90.0 60.0)
           (-90.0 90.0)
           (-90.0 90.0)
  end
  begin
     id 26 
     name rradius
     direction -1 -4.48974e-011 -1.44501e-026   
     length 2.78902   
     axis 180 30 90   XYZ
    dof rx
    limits (-10.0 170.0)
  end
  begin
     id 27 
     name rwrist
     direction -1 -4.48978e-011 -3.11579e-026   
     length 1.39451   
     axis 2.00652e-014 -90 -90   XYZ
    dof ry
    limits (-180.0 0.0)
  end
  begin
     id 28
     name rhand
     direction -1 -4.48956e-011 -6.23158e-026   
     length 0.721303   
     axis 3.97628e-014 -90 -90   XYZ
    dof rx rz
    limits (-90.0 90.0)
           (-45.0 45.0)
  end
  begin
     id 29
     name rfingers
     direction -1 -4.4899e-011 -1.24632e-025   
     length 0.581533   
     axis 7.95256e-014 -90 -90   XYZ
    dof rx
    limits (0.0 90.0)
  end
  begin
     id 30
     name rthumb
     direction -0.707107 -6.34911e-011 0.707107   
     length 0.834968   
     axis -90 -45 -2.85299e-015   XYZ
    dof rx rz
    limits (-45.0 45.0)
           (-45.0 45.0)
  end
:hierarchy
  begin
    root lhipjoint rhipjoint lowerback
    lhipjoint lfemur
    lfemur ltibia
    ltibia lfoot
    lfoot ltoes
    rhipjoint rfemur
    rfemur rtibia
    rtibia rfoot
    rfoot rtoes
    lowerback upperback
    upperback thorax
    thorax lowerneck lclavicle rclavicle
    lowerneck upperneck
    upperneck head
    lclavicle lhumerus
    lhumerus lradius
    lradius lwrist
    lwrist lhand lthumb
    lhand lfingers
    rclavicle rhumerus
    rhumerus rradius
    rradius rwrist
    rwrist rhand rthumb
    rhand rfingers
  end

#!OML:ASF I:\salsa\salsa 7_09\Patient 1\Session 1\dancerfemale.ASF
:FULLY-SPECIFIED
:DEGREES
198
root 20.0178 15.5984 0.218292 -144.46 -89.0529 -217.889
lowerback 7.68595 2.80193 -2.76077
upperback -2.26567 3.55778 1.52577
thorax -6.96407 1.89917 2.66238
lowerneck -0.800509 -5.43252 -9.96107
upperneck 3.98148 -7.55795 10.508
head 2.08644 -3.75492 4.58452
rclavicle 3.2054e-015 4.37326e-015
rhumerus -48.1445 7.57703 -99.4904
rradius 71.6239
rwrist -0.830446
rhand 9.61564 48.7159
rfingers 7.12502
rthumb 34.7617 22.1045
lclavicle 3.2054e-015 4.37326e-015
lhumerus -45.2072 11.1871 86.5002
lradius 79.491
lwrist -21.0519
lhand -21.8804 48.3564
lfingers 7.12502
lthumb 4.52422 78.2881
rfemur -11.274 -0.237326 17.8114
rtibia 39.914
rfoot -9.49432 -38.0903
rtoes 38.1451
lfemur -13.4195 -3.29352 -23.9435
ltibia 43.3197
lfoot -30.6766 -0.289836
ltoes -22.8244
199
root 20.0107 15.5901 0.254861 -97.5019 -89.1235 -265.006
lowerback 8.0019 2.59916 -2.79334
upperback -2.1579 3.26009 1.27083
thorax -6.9946 1.74718 2.44483
lowerneck -0.701533 -5.495 -10.0135
upperneck 3.88877 -7.66047 10.7864
head 2.06626 -3.8063 4.67769
rclavicle -2.9122e-014 -1.07344e-014
rhumerus -49.0371 6.43176 -98.4843
rradius 72.051
rwrist -1.20756
rhand 9.46816 48.8604
rfingers 7.12502
rthumb 34.6217 22.2169
lclavicle -2.9122e-014 -1.07344e-014
lhumerus -44.7992 9.22529 88.8303
lradius 81.262
lwrist -20.6286
lhand -21.9413 48.8279
lfingers 7.12502
lthumb 4.46542 78.7608
rfemur -12.8253 -1.13633 17.4106
rtibia 42.6964
rfoot -8.57176 -37.9589
rtoes 36.5655
lfemur -13.1447 -3.4879 -24.4158
ltibia 43.0987
lfoot -30.5458 -0.741101
ltoes -22.4906
200
root 20.0002 15.5791 0.289147 -54.6653 -88.6884 -307.919
lowerback 8.26958 2.24202 -2.66698
upperback -2.09714 2.77454 1.03711
thorax -7.03046 1.49748 2.19082
lowerneck -0.628302 -5.49188 -10.1321
upperneck 3.75671 -7.673 11.1615
head 2.03572 -3.81225 4.81505
rclavicle 1.41013e-014 1.03368e-014
rhumerus -50.0035 5.24842 -97.4694
rradius 72.4822
rwrist -1.59688
rhand 9.44645 49.0708
rfingers 7.12502
rthumb 34.6011 22.4225
lclavicle 1.41013e-014 1.03368e-014
lhumerus -44.4836 7.10611 91.0523
lradius 83.0909
lwrist -20.2492
lhand -21.8911 49.1551
lfingers 7.12502
lthumb 4.51388 79.087
rfemur -14.1958 -2.2982 17.1371
rtibia 44.9791
rfoot -8.0183 -37.9887
rtoes 34.3515
lfemur -13.0076 -3.78257 -24.7244
ltibia 42.9694
lfoot -30.4752 -1.3638
ltoes -22.2249
201
root 19.9823 15.5758 0.318495 -34.8648 -87.8749 -327.734
lowerback 8.47777 1.79005 -2.48033
upperback -2.07484 2.16966 0.793186
thorax -7.06968 1.18722 1.91308
lowerneck -0.556825 -5.4517 -10.224
upperneck 3.6444 -7.63728 11.5315
head 2.00478 -3.79444 4.94862
rclavicle -3.14452e-014 2.78299e-015
rhumerus -51.0366 4.48913 -96.5827
rradius 73.0295
rwrist -2.00361
rhand 9.05927 49.1293
rfingers 7.12502
rthumb 34.2336 22.3977
lclavicle -3.14452e-014 2.78299e-015
lhumerus -44.1544 4.90984 93.1105
lradius 84.8811
lwrist -19.931
lhand -21.6516 48.7923
lfingers 7.12502
lthumb 4.74522 78.7191
rfemur -15.3159 -3.48472 16.9337
rtibia 46.5653
rfoot -8.23513 -38.0666
rtoes 30.4609
lfemur -12.9217 -3.99473 -24.904
ltibia 42.8367
lfoot -30.439 -2.20456
ltoes -22.2743
202
root 19.9553 15.5801 0.341164 -26.8606 -87.0309 -335.743
lowerback 8.5942 1.33863 -2.32703
upperback -2.02729 1.56524 0.560168
thorax -7.03995 0.878177 1.66941
lowerneck -0.558596 -5.40419 -10.3755
upperneck 3.60136 -7.58843 11.8895
head 2.00646 -3.76853 5.0861
rclavicle 9.93923e-017 -1.59028e-015
rhumerus -51.9885 3.88736 -95.7438
rradius 73.5848
rwrist -2.25271
rhand 8.53054 49.147
rfingers 7.12502
rthumb 33.7313 22.304
lclavicle 9.93923e-017 -1.59028e-015
lhumerus -43.8306 2.53001 95.1021
lradius 86.711
lwrist -19.424
lhand -21.7758 48.6767
lfingers 7.12502
lthumb 4.62528 78.6062
rfemur -16.118 -4.50634 16.7843
rtibia 47.3498
rfoot -9.10159 -38.2073
rtoes 28.483
lfemur -12.7894 -3.77063 -24.9718
ltibia 42.6352
lfoot -30.3171 -3.31171
ltoes -22.398
203
root 19.9208 15.5938 0.35882 -23.2531 -86.2421 -339.393
lowerback 8.68252 1.00888 -2.19981
upperback -1.9782 1.11615 0.252657
thorax -7.00638 0.644679 1.34
lowerneck -0.536236 -5.43989 -10.5121
upperneck 3.59704 -7.67721 12.5124
head 2.04099 -3.8096 5.29759
rclavicle 5.70264e-015 -6.06293e-015
rhumerus -52.9638 2.82136 -94.7964
rradius 74.2025
rwrist -2.39155
rhand 8.50865 49.1427
rfingers 7.12502
rthumb 33.7105 22.2952
lclavicle 5.70264e-015 -6.06293e-015
lhumerus -43.6155 -0.371481 97.0896
lradius 88.6401
lwrist -18.8538
lhand -21.9758 48.9629
lfingers 7.12502
lthumb 4.4321 78.8965
rfemur -16.5674 -5.29746 16.6439
rtibia 47.3219
rfoot -9.90644 -38.0397
rtoes 29.9211
lfemur -12.5471 -2.90484 -24.9465
ltibia 42.3314
lfoot -30.0999 -4.90664
ltoes -22.3087
204
root 19.8801 15.6158 0.375132 -19.1679 -85.4427 -343.472
lowerback 8.71319 0.705681 -1.87503
upperback -2.00408 0.720015 -0.131005
thorax -7.0244 0.428079 0.812098
lowerneck -0.264704 -5.497 -10.1905
upperneck 3.46302 -7.8006 12.8688
head 1.97259 -3.87655 5.3593
rclavicle 8.24646e-015 2.68359e-015
rhumerus -54.0799 1.49645 -93.8658
rradius 74.8319
rwrist -2.50217
rhand 8.71208 49.2145
rfingers 7.12502
rthumb 33.9038 22.4094
lclavicle 8.24646e-015 2.68359e-015
lhumerus -43.4553 -3.72455 99.0452
lradius 90.4817
lwrist -18.4683
lhand -21.7689 49.9935
lfingers 7.12502
lthumb 4.63192 79.9229
rfemur -16.7785 -5.99205 16.6462
rtibia 46.5822
rfoot -10.7278 -37.5583
rtoes 30.6738
lfemur -12.3118 -1.83254 -24.7329
ltibia 41.9435
lfoot -29.8253 -6.73136
ltoes -21.9479
205
root 19.8351 15.6384 0.390567 -14.3922 -84.6852 -348.259
lowerback 8.74119 0.324903 -1.32833
upperback -2.05501 0.251104 -0.431977
thorax -7.07567 0.168561 0.25705
lowerneck 0.0365938 -5.44648 -10.1421
upperneck 3.40862 -7.78887 13.3587
head 1.92229 -3.87959 5.51366
rclavicle -1.88193e-014 -1.39149e-015
rhumerus -55.2823 0.444672 -92.9687
rradius 75.376
rwrist -2.40475
rhand 8.67186 49.3648
rfingers 7.12502
rthumb 33.8656 22.5513
lclavicle -1.88193e-014 -1.39149e-015
lhumerus -43.391 -6.95933 100.904
lradius 92.2998
lwrist -18.1266
lhand -21.0047 50.3543
lfingers 7.12502
lthumb 5.36983 80.2663
rfemur -16.7615 -6.58864 16.8655
rtibia 45.3012
rfoot -11.5875 -36.9302
rtoes 30.0569
lfemur -11.998 -1.20794 -24.3861
ltibia 41.5026
lfoot -29.529 -8.06738
ltoes -21.3026
206
root 19.7878 15.6639 0.402024 -10.352 -83.984 -352.325
lowerback 8.76458 0.0092595 -0.738196
upperback -2.06894 -0.122273 -0.693129
thorax -7.0995 -0.0456961 -0.294332
lowerneck 0.17288 -5.454 -10.1563
upperneck 3.43157 -7.85018 13.8703
head 1.93425 -3.91333 5.67634
rclavicle 5.09386e-016 2.98177e-015
rhumerus -56.5256 -0.577935 -92.0002
rradius 75.9717
rwrist -2.25048
rhand 8.49853 49.5725
rfingers 7.12502
rthumb 33.7009 22.7229
lclavicle 5.09386e-016 2.98177e-015
lhumerus -43.5841 -10.234 102.768
lradius 94.2554
lwrist -17.8289
lhand -19.8724 49.7772
lfingers 7.12502
lthumb 6.46302 79.6586
rfemur -16.6342 -7.01316 17.1958
rtibia 43.6894
rfoot -12.6603 -36.1177
rtoes 29.2963
lfemur -11.6261 -0.822329 -24.0084
ltibia 41.0234
lfoot -29.2721 -9.15405
ltoes -20.6873
207
root 19.7345 15.6895 0.410774 -7.61556 -83.3747 -354.947
lowerback 8.57582 -0.261487 -0.254793
upperback -2.11576 -0.445166 -0.934469
thorax -7.04657 -0.230612 -0.772792
lowerneck 0.314022 -5.45604 -10.1038
upperneck 3.44552 -7.89494 14.2325
head 1.93236 -3.93977 5.78287
rclavicle -4.4975e-015 1.98785e-016
rhumerus -57.9092 -1.41701 -91.0276
rradius 76.6433
rwrist -2.15436
rhand 8.33889 49.7328
rfingers 7.12502
rthumb 33.5492 22.8501
lclavicle -4.4975e-015 1.98785e-016
lhumerus -43.2334 -13.4198 104.692
lradius 95.6573
lwrist -17.4988
lhand -21.1716 50.461
lfingers 7.12502
lthumb 5.20867 80.3769
rfemur -16.5813 -7.13105 17.4938
rtibia 41.9549
rfoot -13.9018 -35.7159
rtoes 28.8487
lfemur -11.3738 -0.373818 -23.6703
ltibia 40.5449
lfoot -29.0775 -10.2503
ltoes -20.3285
